<?xml version="1.0" standalone="no"?>
<!DOCTYPE svg PUBLIC "-//W3C//DTD SVG 20010904//EN"
 "http://www.w3.org/TR/2001/REC-SVG-20010904/DTD/svg10.dtd">
<svg version="1.0" xmlns="http://www.w3.org/2000/svg"
 width="252.000000pt" height="45.000000pt" viewBox="0 0 252.000000 45.000000"
 preserveAspectRatio="xMidYMid meet">
<metadata>
Created by potrace 1.13, written by Peter Selinger 2001-2015
</metadata>
<g transform="translate(0.000000,45.000000) scale(0.100000,-0.100000)"
fill="#000000" stroke="none">
<path d="M0 225 l0 -225 1260 0 1260 0 0 225 0 225 -1260 0 -1260 0 0 -225z
m1010 71 c36 -69 69 -126 73 -126 4 0 5 15 2 33 -8 42 10 110 38 148 62 84
218 91 289 12 15 -17 48 -83 48 -98 0 -3 -15 -5 -33 -5 -27 0 -35 5 -44 30
-26 68 -134 91 -190 39 -32 -30 -56 -84 -48 -110 6 -18 17 -19 161 -19 85 0
154 -2 154 -5 0 -19 -44 -87 -70 -109 -32 -27 -56 -36 -100 -38 -63 -4 -91 4
-136 38 -33 25 -45 31 -39 18 20 -50 19 -54 -18 -54 -22 0 -37 6 -41 15 -5 13
-15 10 -63 -17 l-57 -32 -58 32 c-48 26 -60 29 -64 17 -4 -9 -19 -15 -41 -15
-36 0 -38 4 -19 51 11 26 -37 39 -149 39 -87 0 -105 -3 -105 -15 0 -12 19 -15
115 -15 l115 0 0 -30 0 -30 -145 0 -145 0 0 180 0 180 145 0 145 0 0 -25 0
-25 -115 0 -115 0 0 -80 0 -80 115 0 c86 0 124 -4 146 -16 17 -8 32 -14 33
-12 2 2 33 60 70 131 37 70 71 125 74 123 4 -2 36 -61 72 -130z m520 -36 l0
-150 115 0 115 0 0 -30 0 -30 -145 0 -145 0 0 180 0 180 30 0 30 0 0 -150z
m540 125 l0 -25 -115 0 -115 0 0 -80 0 -80 80 0 80 0 0 -30 0 -30 -80 0 c-64
0 -80 -3 -80 -15 0 -12 19 -15 115 -15 l115 0 0 -30 0 -30 -145 0 -145 0 0
180 0 180 145 0 145 0 0 -25z"/>
<path d="M895 222 c-22 -42 -41 -79 -42 -83 -2 -3 15 -16 39 -29 l41 -23 44
23 c24 12 43 26 43 29 0 3 -20 41 -43 83 l-43 77 -39 -77z"/>
<path d="M1210 125 c32 -19 100 -18 124 0 18 14 12 15 -65 15 -78 -1 -82 -2
-59 -15z"/>
</g>
</svg>
